<svg xmlns="http://www.w3.org/2000/svg" viewBox="0 0 512 512">
  <path fill="#1e40af" d="M256 64c-35.35 0-64 28.65-64 64v32h128v-32c0-35.35-28.65-64-64-64zm-96 96v-32c0-53.02 42.98-96 96-96s96 42.98 96 96v32h64v256H96V160h64zm-32 32H96v192h320V192h-32v32h-32v-32H160v32h-32v-32zm192 64v-32h32v32h-32zm-192 0v-32h32v32h-32zm96 64c-17.67 0-32-14.33-32-32s14.33-32 32-32 32 14.33 32 32-14.33 32-32 32z"/>
  <circle cx="256" cy="128" r="24"/>
  <circle cx="192" cy="192" r="16"/>
  <circle cx="320" cy="192" r="16"/>
  <circle cx="224" cy="256" r="12"/>
  <circle cx="288" cy="256" r="12"/>
  <circle cx="256" cy="288" r="12"/>
  <rect x="128" y="384" width="256" height="64" rx="8"/>
</svg>